<?xml version="1.0" encoding="UTF-8"?>
<svg id="Layer_1" data-name="Layer 1" xmlns="http://www.w3.org/2000/svg" viewBox="0 0 405 405">
  <circle cx="202.5" cy="202.5" r="200" fill="#d3c8e3"/>
  <path d="M192.15,280.02c-10.78-11.28-24.07-20.24-39.6-25.39-7.49-2.49-15.49-4.03-23.37-4.63-9.61-.73-17.89,2.78-23.76,11.1-3.66,5.19-8.98,7.81-15.42,7.9-4.87,.06-9.7-.56-11.9-5.54-2.24-5.06,1.25-8.71,4.63-11.64,10.17-8.83,21.98-14.42,35.4-16.1,21.85-2.74,40.51,5.53,57.95,17.45,5.35,3.65,10.21,8.02,15.3,12.05,.98,.77,1.99,1.5,3.57,2.7,.51-7.83,1.02-14.91,1.36-22,.05-1.03-.44-2.37-1.15-3.1-15.88-16.39-34.2-28.09-57.76-29.29-8.51-.44-15.57,2.5-20.95,9.44-4.59,5.92-10.87,8.14-18.22,6.69-7.24-1.42-9.44-7.41-4.6-12.97,6.33-7.27,14.9-11.15,23.85-13.96,17.62-5.52,34.49-2.44,49.98,6.67,9.54,5.61,18.04,13,27.01,19.59,.62,.46,1.26,.9,3.28,2.34,0-7.96,.12-14.71-.11-21.45-.04-1.25-1.28-2.63-2.28-3.64-12.61-12.57-27.51-21.05-45.13-24.06-10.21-1.75-19.51-.09-26.25,9.18-3.46,4.76-8.82,6.83-14.61,5.72-2.62-.5-6.12-2.42-6.95-4.58-.81-2.08,.52-6.03,2.26-7.88,7.18-7.63,16.47-11.89,26.61-13.83,21.21-4.06,38.74,4.74,55.19,16.69,3.85,2.8,7.41,6,12.49,10.15,0-7.91,.06-14.47-.06-21.04-.02-1.04-.61-2.31-1.36-3.05-12.69-12.54-27.44-21.05-45.56-22.61-7.97-.68-14.38,2.04-19.83,8.35-2.55,2.95-7.15,5.04-11.09,5.59-2.73,.38-7.11-1.83-8.51-4.2-.99-1.67,.98-6.51,3.04-8.3,10.48-9.12,22.8-13.58,36.85-12.13,16.43,1.69,29.81,9.89,42.17,20.15,1.25,1.04,2.48,2.1,5.19,2.94,0-6.21,.06-12.43-.07-18.64-.02-.85-.78-1.82-1.44-2.5-11.02-11.25-23.94-19.1-39.74-21.37-8.18-1.18-15.31,.42-21,7.46-2.14,2.65-6.35,4.47-9.84,4.92-2.51,.32-6.49-1.62-7.73-3.76-.91-1.57,.8-5.92,2.64-7.61,7.45-6.84,16.5-10.69,26.64-11.17,17.44-.83,31.4,7.36,44.37,17.83,1.93,1.55,3.73,3.26,6.83,5.98,0-7.61,.03-13.98-.05-20.35,0-.55-.58-1.19-1.04-1.63-10.61-10.2-22.6-17.51-37.84-18.06-5.72-.21-10.12,1.9-14.08,6.16-2.19,2.36-5.69,4.29-8.83,4.73-2.34,.32-5.72-1.52-7.3-3.48-.75-.93,1.02-5.09,2.71-6.57,6.41-5.58,14-9,22.6-9.53,14.93-.91,27.06,5.73,38.32,14.56,1.65,1.29,3.25,2.65,5.13,4.19,1.99-8.46,1.31-15.31-5.7-20.94-8.01-6.43-16.12-12.39-26.45-14.41-5.8-1.13-10.87-.24-14.6,5.02-1,1.41-2.66,2.6-4.27,3.29-3.57,1.52-7.2,1.02-9.33-2.34-2.09-3.3,0-6.09,2.65-8.17,8.31-6.51,17.63-8.38,27.76-5.42,9.84,2.88,17.91,8.74,25.16,15.77,1.61,1.56,2.6,3.75,3.88,5.64,.81-.48,1.62-.95,2.43-1.43,0-6.24,.05-12.49-.06-18.73-.02-.87-.66-1.92-1.32-2.57-7.12-7.04-15.06-12.64-25.37-13.81-5.18-.59-9.64,.47-12.17,5.67-.35,.73-.94,1.39-1.56,1.93-2.85,2.46-6.21,3.23-8.98,.51-2.64-2.59-1.13-5.56,.99-7.99,6.62-7.6,17.56-10.6,27.4-5.75,8.66,4.28,16.41,10.4,24.91,15.94,3.47-2.98,7.78-7.35,12.76-10.76,4.33-2.97,9.22-5.35,14.18-7.11,9.06-3.21,16.66,.19,23.04,6.69,2.41,2.45,3.63,5.54,.41,8.26-3.14,2.66-6.33,1.63-8.89-1.08-8.01-8.49-11.17-9.16-21.93-4.31-16.33,7.36-19.69,13.92-15.99,34.52,3.01-3.4,5.7-7.17,9.09-10.15,8.65-7.62,18.17-13.63,30.39-13.13,6.72,.28,12.62,2.81,17.84,6.95,2.48,1.97,4.56,4.52,2.7,7.72-1.92,3.29-5.37,3.99-8.76,2.55-2.05-.87-4.01-2.39-5.49-4.07-3.42-3.91-7.62-5.29-12.54-4.45-14.54,2.48-25.29,11.09-33.41,22.65-2.23,3.18-.8,8.93-1.13,14.98,2.23-1.76,3.31-2.56,4.33-3.44,10.25-8.82,21.4-15.9,35.05-18.11,10.91-1.77,20.44,1.8,28.84,8.41,1.74,1.37,3.57,5.43,2.82,6.55-1.39,2.07-4.71,4.03-7.12,3.91-2.97-.15-6.72-1.73-8.58-3.98-5.19-6.28-11.48-7.43-18.83-5.94-12.61,2.56-23.19,8.9-32.6,17.49-2.43,2.22-3.38,4.57-3.17,7.85,.29,4.44,.07,8.92,.07,13.38,.47,.19,.94,.37,1.41,.56,1.43-1.2,2.88-2.38,4.3-3.59,10.65-9.08,22.23-16.42,36.19-19.32,12.91-2.68,24.43,.67,34.85,8.3,2.82,2.06,5.8,4.79,4.01,8.78-1.86,4.15-6.11,4.88-9.87,3.84-3.16-.87-6.46-2.79-8.68-5.18-3.77-4.07-7.97-6.66-13.47-6.51-19.04,.52-33.77,10.02-46.83,22.85-.53,.52-.91,1.47-.91,2.22-.07,6.93-.04,13.86-.04,20.8,.49,.15,.98,.29,1.47,.44,1.18-1.04,2.37-2.07,3.54-3.12,11.33-10.08,23.69-18.37,38.55-22.34,15.21-4.07,29.05-.85,41.62,8.2,3.26,2.35,6.57,5.54,4.47,10.07-2.06,4.44-6.63,4.97-10.82,4.04-2.93-.65-6.55-1.93-8.16-4.15-6.81-9.4-16.12-10.14-25.97-7.94-16.55,3.71-30.38,12.48-42.13,24.6-.66,.68-1.42,1.65-1.43,2.5-.12,6.08-.07,12.17-.07,18.25,.53,.13,1.05,.26,1.58,.4,1.73-1.46,3.45-2.93,5.19-4.38,13.76-11.45,28.58-20.76,46.81-23.17,14.73-1.94,27.65,2.54,39.12,11.55,2.91,2.28,5.44,5.34,3.91,9.48-1.49,4.04-5.27,4.88-9.01,5.08-5.26,.28-10.08-1.23-13.18-5.7-5.75-8.27-14.03-9.95-22.99-8.54-19.09,2.99-34.98,12.41-48.57,25.87-1.04,1.03-1.8,2.88-1.78,4.33,.09,6.32,.52,12.63,.89,20.14,2.19-1.6,3.73-2.61,5.14-3.77,13.66-11.2,28.32-20.54,45.81-24.55,18.01-4.13,34.37-.32,49.03,10.79,5.51,4.18,7.49,8.93,5.72,12.68-1.88,3.99-8.99,6.61-14.65,4.59-3.46-1.24-7.44-3.15-9.42-5.99-6.55-9.41-15.7-11.62-25.93-10.14-20.62,2.98-38.01,12.79-53.14,26.82-.9,.83-1.84,2.22-1.82,3.33,.14,6.94,.56,13.88,.93,21.96,2.31-1.81,3.71-2.88,5.08-3.98,15.81-12.63,32.78-22.94,53.24-25.98,17.93-2.66,34.03,2.16,48.47,12.76,5.84,4.29,7.75,9.11,5.94,13.04-1.79,3.87-8.01,6.36-14.03,5.58-5.36-.7-10-2.93-13.11-7.4-5.18-7.43-12.64-10.88-21.1-10.09-9,.84-18.06,2.83-26.67,5.61-12.81,4.14-23.9,11.65-33.99,20.54-1.31,1.15-2.15,2.85-3.2,4.29,.28,.39,.56,.77,.83,1.16,1.75-.15,3.5-.32,5.26-.45,19.99-1.45,39.83-1.06,58.04,8.62,14.27,7.59,25.08,18.59,29.92,34.57,5.12,16.88-2.48,30.76-19.15,36.63-25.49,8.97-72.61-4.54-82.58-42.09-.36-1.35-.98-2.64-1.79-4.78-1.46,4.75-2.46,8.7-3.87,12.49-8.32,22.39-26.34,33.41-48.02,38.83-8.78,2.2-18.6,2.35-27.62,1.11-24.88-3.4-30.98-24.54-22.53-43.72,8.56-19.44,24.03-31.55,44.42-36.24,14.49-3.33,29.48-4.5,44.4-6.66Zm3.76,9.41c-.74-.13-1.54-.42-2.32-.38-14.37,.69-28.47,2.9-42.09,7.73-11.05,3.92-20.17,10.22-25.59,20.99-7.43,14.75-.55,28.33,15.65,30.78,2.94,.44,5.99,.62,8.96,.41,31.05-2.13,45.55-28.14,45.38-59.53Zm14.19,.33c3.88,11.01,6.47,21.05,10.86,30.22,8.61,17.96,23.69,25.83,43.46,24.75,18.46-1.01,27.14-16.85,17.21-32.47-3.43-5.4-8.57-10.55-14.13-13.62-17.22-9.5-36.24-9.61-57.41-8.88Z" fill="#221550"/>
</svg>